<?xml version="1.0" encoding="iso-8859-1"?>
<!-- Uploaded to: SVG Repo, www.svgrepo.com, Generator: SVG Repo Mixer Tools -->
<!DOCTYPE svg PUBLIC "-//W3C//DTD SVG 1.1//EN" "http://www.w3.org/Graphics/SVG/1.1/DTD/svg11.dtd">
<svg fill="#000000" version="1.1" id="Capa_1" xmlns="http://www.w3.org/2000/svg" xmlns:xlink="http://www.w3.org/1999/xlink" 
	 width="800px" height="800px" viewBox="0 0 41.808 41.808"
	 xml:space="preserve">
<g>
	<g>
		<path d="M6.851,12.449l-0.929,0.008v0.455l0.981-0.007c0.73,0,1.138,0.403,1.133,1.109c0,0.811-0.451,1.228-1.209,1.223
			c-0.119,0-0.242,0-0.322-0.014v-1.774H5.922v2.21c0.189,0.024,0.445,0.043,0.787,0.043c0.621,0,1.128-0.147,1.446-0.437
			c0.304-0.275,0.498-0.702,0.498-1.27c0-0.545-0.19-0.925-0.498-1.176C7.861,12.573,7.448,12.449,6.851,12.449z"/>
		<path d="M5.081,13.96v-0.01c0.392-0.138,0.588-0.412,0.588-0.746c0-0.417-0.338-0.78-0.996-0.78c-0.382,0-0.735,0.118-0.917,0.245
			l0.138,0.437c0.132-0.088,0.392-0.201,0.652-0.201c0.348,0,0.51,0.182,0.51,0.397c0,0.319-0.353,0.446-0.633,0.446h-0.27v0.441
			h0.279c0.368,0,0.721,0.162,0.721,0.539c0.005,0.25-0.181,0.51-0.642,0.51c-0.304,0-0.603-0.123-0.726-0.196l-0.138,0.457
			c0.172,0.112,0.505,0.22,0.893,0.22c0.79,0,1.241-0.426,1.241-0.966C5.782,14.323,5.469,14.029,5.081,13.96z"/>
		<path d="M39.08,3.185H2.727C1.224,3.185,0,4.409,0,5.912v29.984c0,1.503,1.223,2.727,2.727,2.727H39.08
			c1.504,0,2.728-1.224,2.728-2.727V5.912C41.808,4.409,40.585,3.185,39.08,3.185z M35.955,5.038c0.859,0,1.558,0.698,1.558,1.559
			c0,0.861-0.698,1.558-1.558,1.558c-0.86,0-1.559-0.697-1.559-1.558C34.396,5.736,35.094,5.038,35.955,5.038z M31.016,5.038
			c0.861,0,1.559,0.698,1.559,1.559c0,0.861-0.697,1.558-1.559,1.558c-0.859,0-1.558-0.697-1.558-1.558
			C29.458,5.736,30.154,5.038,31.016,5.038z M39.471,35.896c0,0.215-0.175,0.39-0.391,0.39H2.727c-0.215,0-0.39-0.175-0.39-0.39
			V10.975c0-0.215,0.175-0.39,0.39-0.39H39.08c0.216,0,0.391,0.175,0.391,0.39V35.896z"/>
		<path d="M12.623,17.756l0.061,0.116l-0.071-0.015v11.33l9.375,2.215l7.207-3.965V15.924l-9.612-1.852L12.623,17.756z
			 M21.518,30.728l-8.407-1.936V18.474l8.407,1.808V30.728z M28.354,16.374l-6.39,3.499l-8.674-1.87l6.372-3.371L28.354,16.374z"/>
		<path d="M37.445,12.2c-0.049-0.05-0.131-0.05-0.182,0c-0.025,0.026-0.038,0.059-0.038,0.092c0,0.033,0.013,0.066,0.038,0.091
			l0.129,0.13h-0.447c-0.039-0.132-0.138-0.234-0.269-0.278v-0.313l0.129,0.13c0.052,0.05,0.134,0.05,0.185,0
			c0.05-0.051,0.05-0.133,0-0.183l-0.352-0.351c-0.023-0.024-0.057-0.039-0.091-0.039s-0.067,0.014-0.093,0.039l-0.352,0.351
			c-0.049,0.05-0.049,0.132,0,0.183c0.025,0.025,0.059,0.038,0.092,0.038s0.066-0.013,0.092-0.038l0.13-0.13v0.313
			c-0.132,0.042-0.229,0.145-0.271,0.277h-0.447l0.131-0.129c0.05-0.051,0.05-0.132,0-0.183c-0.051-0.05-0.133-0.05-0.184,0
			l-0.351,0.352c-0.024,0.023-0.039,0.056-0.039,0.091c0,0.034,0.015,0.067,0.039,0.091l0.351,0.351
			c0.051,0.051,0.133,0.051,0.184,0c0.025-0.025,0.037-0.058,0.037-0.091c0-0.033-0.012-0.066-0.037-0.092l-0.131-0.129h0.451
			c0.043,0.124,0.142,0.217,0.267,0.257v0.755h0.259V13.03c0.124-0.041,0.221-0.134,0.266-0.257h0.45l-0.129,0.13
			c-0.051,0.05-0.051,0.132,0,0.183c0.052,0.05,0.134,0.05,0.183,0l0.352-0.352c0.023-0.024,0.038-0.057,0.038-0.092
			c0-0.034-0.013-0.067-0.038-0.091L37.445,12.2z"/>
	</g>
</g>
</svg>