<?xml version="1.0" encoding="iso-8859-1"?>
<!-- Uploaded to: SVG Repo, www.svgrepo.com, Generator: SVG Repo Mixer Tools -->
<!DOCTYPE svg PUBLIC "-//W3C//DTD SVG 1.1//EN" "http://www.w3.org/Graphics/SVG/1.1/DTD/svg11.dtd">
<svg fill="#000000" version="1.1" id="Capa_1" xmlns="http://www.w3.org/2000/svg" xmlns:xlink="http://www.w3.org/1999/xlink" 
	 width="800px" height="800px" viewBox="0 0 50 50.001" xml:space="preserve">
<g>
	<g>
		<path d="M25.555,11.909c-1.216,0-2.207,1.963-2.207,4.396c0,2.423,0.991,4.395,2.207,4.395c1.208,0,2.197-1.972,2.197-4.395
			C27.751,13.872,26.762,11.909,25.555,11.909z"/>
		<path d="M18.22,5.842c4.432,0,6.227,0.335,6.227,3.653h2.207c0-5.851-4.875-5.851-8.433-5.851c-4.422,0-6.227-0.326-6.227-3.644
			H9.795C9.795,5.842,14.671,5.842,18.22,5.842z"/>
		<path d="M29.62,9.495c0.209,0.632,0.331,1.315,0.331,2.031v9.548c0,2.681-1.562,4.91-3.608,5.387
			c0.004,0.031,0.021,0.059,0.021,0.1v7.67c0,0.445-0.363,0.81-0.817,0.81c-0.445,0-0.809-0.365-0.809-0.81v-7.67
			c0-0.041,0.019-0.068,0.022-0.1c-2.046-0.477-3.609-2.706-3.609-5.387v-9.548c0-0.715,0.121-1.399,0.331-2.031
			c-6.057,1.596-10.586,7.089-10.586,13.632v12.716c-0.001,7.787,6.37,14.158,14.155,14.158h0.999
			c7.786,0,14.156-6.371,14.156-14.158V23.127C40.206,16.584,35.676,11.091,29.62,9.495z"/>
	</g>
</g>
</svg>