<?xml version="1.0" standalone="no"?>
<!DOCTYPE svg PUBLIC "-//W3C//DTD SVG 20010904//EN"
 "http://www.w3.org/TR/2001/REC-SVG-20010904/DTD/svg10.dtd">
<svg version="1.0" xmlns="http://www.w3.org/2000/svg"
 width="1079.000000pt" height="1280.000000pt" viewBox="0 0 1079.000000 1280.000000"
 preserveAspectRatio="xMidYMid meet">
<metadata>
Created by potrace 1.15, written by Peter Selinger 2001-2017
</metadata>
<g transform="translate(0.000000,1280.000000) scale(0.100000,-0.100000)"
fill="#000000" stroke="none">
<path d="M9200 12751 c-190 -143 -654 -577 -1259 -1176 -750 -744 -1595 -1627
-2541 -2660 -156 -170 -286 -311 -289 -312 -3 -1 -82 107 -176 239 -642 910
-1259 1846 -1845 2799 -73 118 -151 233 -173 257 -90 94 -204 172 -272 186
-82 17 -240 -41 -313 -115 -82 -83 -120 -171 -153 -353 -39 -215 -108 -306
-234 -306 -41 0 -50 5 -90 45 -25 24 -45 49 -45 55 0 10 -269 230 -281 230
-11 0 -232 -233 -328 -345 -100 -116 -192 -235 -272 -353 l-57 -83 14 -62 c51
-219 154 -543 278 -866 443 -1155 987 -2305 1642 -3472 79 -140 144 -260 144
-266 0 -5 -10 -18 -21 -29 -12 -10 -46 -51 -75 -91 -29 -40 -489 -575 -1021
-1190 -934 -1079 -983 -1138 -1401 -1675 l-432 -557 44 -133 c25 -73 75 -198
112 -278 36 -80 77 -173 90 -206 22 -59 22 -64 9 -129 -14 -66 -84 -212 -145
-300 -58 -86 -63 -101 -45 -154 18 -56 218 -373 342 -543 97 -133 235 -285
288 -318 l35 -21 47 25 c147 78 290 128 371 130 58 1 66 -1 88 -27 31 -37 31
-53 -11 -198 -34 -118 -35 -123 -18 -143 10 -11 87 -96 171 -188 l154 -168
116 1 117 0 425 591 c653 908 818 1130 1491 2008 343 448 664 870 712 937 49
68 91 123 95 122 18 -1 324 -430 632 -884 536 -792 836 -1186 1243 -1633 186
-204 237 -227 359 -159 156 87 341 249 506 444 51 60 105 116 121 126 l28 17
119 -82 c144 -98 178 -123 226 -165 45 -39 109 -73 139 -73 27 0 123 48 203
102 56 38 131 110 293 283 l63 67 -25 88 c-14 49 -25 96 -25 104 0 24 113 124
410 362 176 142 243 209 317 319 86 127 160 307 198 479 l17 79 -80 76 c-293
279 -975 1115 -1983 2431 -460 602 -564 741 -563 754 2 26 678 849 1093 1331
775 898 1698 1898 2523 2731 147 149 268 275 268 281 0 6 -7 27 -16 48 -21 50
-13 75 45 138 79 88 142 191 177 289 l14 39 -186 275 c-102 151 -187 274 -190
274 -2 0 -63 -16 -135 -35 l-132 -34 -61 47 c-178 136 -256 210 -256 243 0 7
17 42 39 78 60 102 60 100 -2 183 -75 101 -330 346 -472 455 -46 35 -98 63
-117 63 -7 0 -42 -22 -78 -49z"/>
</g>
</svg>
