<?xml version="1.0" encoding="utf-8"?><svg version="1.1" id="Layer_1" xmlns="http://www.w3.org/2000/svg" xmlns:xlink="http://www.w3.org/1999/xlink" x="0px" y="0px" viewBox="0 0 122.88 95.17" style="enable-background:new 0 0 122.88 95.17" xml:space="preserve"><g><path d="M104.42,21.23h0.27c0.78,0,1.47,0.36,1.93,0.91c11.41,11.74,17.4,37.23,16.07,54.29c-0.37,4.73-1.3,8.89-2.83,12.03 c-1.74,3.58-4.25,5.93-7.61,6.55c-4.28,0.79-9.63-1.47-16.06-8.02c-0.83-0.84-1.69-1.69-2.57-2.56c-3-2.95-6.16-6.06-8.83-9.81 H38.08c-2.68,3.78-5.84,6.89-8.85,9.84c-0.87,0.86-1.73,1.7-2.55,2.53c-6.43,6.55-11.78,8.81-16.06,8.02 c-3.36-0.62-5.88-2.97-7.61-6.55c-1.53-3.15-2.46-7.3-2.83-12.03C-1.15,59.29,4.9,33.65,16.4,21.98c0.49-0.5,1.13-0.75,1.78-0.75 v-0.01h0.28c1.41-1.94,3.16-3.5,5.13-4.68c2.99-1.79,6.47-2.68,9.93-2.68c3.47,0,6.95,0.89,9.93,2.68c1.96,1.17,3.71,2.73,5.1,4.67 h7.91C55.85,6.29,60,2.54,66.13,2.12c2.22-0.15,4.57,0.24,7.03,0.65c4.65,0.77,9.79,1.62,13.44-2.03c0.98-0.98,2.56-0.98,3.54,0 c0.98,0.98,0.98,2.56,0,3.54C84.67,9.74,78.2,8.67,72.35,7.7c-2.16-0.36-4.22-0.7-5.89-0.59c-3.31,0.22-5.51,2.98-4.99,14.12h12.87 c1.4-1.94,3.16-3.51,5.12-4.68c2.99-1.79,6.47-2.68,9.92-2.68s6.93,0.9,9.92,2.68C101.26,17.72,103.02,19.28,104.42,21.23 L104.42,21.23z M90.87,51.95c1.84,1.84,1.84,4.81,0,6.65c-1.84,1.84-4.81,1.84-6.65,0c-1.84-1.84-1.84-4.81,0-6.65 C86.05,50.12,89.03,50.12,90.87,51.95L90.87,51.95z M101.33,42.57c1.84,1.84,1.84,4.81,0,6.65c-1.84,1.84-4.81,1.84-6.65,0 c-1.84-1.84-1.84-4.81,0-6.65C96.52,40.73,99.49,40.73,101.33,42.57L101.33,42.57z M80.4,42.57c1.84,1.84,1.84,4.81,0,6.65 c-1.84,1.84-4.81,1.84-6.65,0c-1.84-1.84-1.84-4.81,0-6.65C75.59,40.73,78.57,40.73,80.4,42.57L80.4,42.57z M90.87,34.19 c1.84,1.84,1.84,4.81,0,6.65c-1.84,1.84-4.81,1.84-6.65,0c-1.84-1.84-1.84-4.81,0-6.65C86.05,32.36,89.03,32.36,90.87,34.19 L90.87,34.19z M26.85,35.03h8.17v8.33h8.33v8.17h-8.33v8.33h-8.17v-8.33h-8.33v-8.17h8.33V35.03L26.85,35.03z M103.62,26.24h-0.54 v-0.01c-0.85,0-1.68-0.43-2.14-1.22c-1.07-1.78-2.53-3.18-4.21-4.18c-2.19-1.31-4.76-1.96-7.36-1.96c-2.59,0-5.17,0.65-7.36,1.96 c-1.63,0.97-3.05,2.32-4.11,4.02c-0.41,0.82-1.26,1.38-2.24,1.38H47.22v-0.01c-0.85,0-1.68-0.43-2.14-1.22 c-1.06-1.78-2.52-3.17-4.19-4.17c-2.2-1.32-4.78-1.98-7.37-1.98c-2.59,0-5.17,0.66-7.37,1.98c-1.63,0.98-3.06,2.32-4.12,4.02 c-0.41,0.82-1.26,1.38-2.24,1.38h-0.54C9.19,37.25,3.95,60.38,5.17,76.06c0.32,4.12,1.09,7.67,2.34,10.23 c1.04,2.13,2.37,3.51,4.01,3.81c2.67,0.49,6.47-1.39,11.6-6.61c0.85-0.86,1.72-1.72,2.61-2.59c3.08-3.02,6.33-6.22,8.83-9.96 c0.42-0.79,1.25-1.32,2.21-1.32h49.34v0.01c0.81,0,1.6,0.39,2.08,1.12c2.54,3.84,5.83,7.08,8.94,10.14 c0.9,0.88,1.78,1.75,2.63,2.62c5.12,5.22,8.93,7.1,11.6,6.61c1.64-0.3,2.98-1.68,4.01-3.81c1.25-2.57,2.02-6.11,2.34-10.23 C118.93,60.38,113.69,37.25,103.62,26.24L103.62,26.24z"/></g></svg>