<?xml version="1.0" encoding="UTF-8"?>
<svg id="logo_OSI" width="468.1909pt" height="614.0127pt" version="1.2" viewBox="0 0 468.1909 614.0127" xmlns="http://www.w3.org/2000/svg" xmlns:cc="http://creativecommons.org/ns#" xmlns:dc="http://purl.org/dc/elements/1.1/" xmlns:rdf="http://www.w3.org/1999/02/22-rdf-syntax-ns#">
 <metadata id="metadata1">
  <rdf:RDF>
   <cc:Work rdf:about="">
    <dc:format>image/svg+xml</dc:format>
    <dc:type rdf:resource="http://purl.org/dc/dcmitype/StillImage"/>
   </cc:Work>
  </rdf:RDF>
 </metadata>
 <path id="shape" d="m262.006 307.1224c32.25781-11.98047 49.09765-35.05078 49.09765-74.75781s-33.46093-74.69531-75.26953-74.76563c-44.12109-0.0703-77.40234 34.91407-76.87109 74.76563s19.53906 66.36328 49.95703 75.94922l-53.88672 132.5703c-72.12109-18.67187-145.4727-103.7539-145.4727-208.5195 0-124.0859 99.70313-224.6797 224.6719-224.6797s226.2734 100.5937 226.2734 224.6797c0 106.3945-72.65625 190.293-146.3164 208.8906zm0 0" style="fill:#3da638;stroke-linecap:round;stroke-linejoin:round;stroke-width:15.3697;stroke:#1c511c"/>
 <g id="text" transform="matrix(1.082924 0 0 1.148944 -55.53372 -162.9183)" style="fill:#000000;stroke-width:.75px">
  <path id="o1" d="m91.04297 583.3072q0 9.77344-5.273438 15.25781-5.238281 5.44922-14.69531 5.44922-9.070313 0-14.44922-5.58984-5.34375-5.58985-5.34375-15.11719 0-9.73828 5.238281-15.11719 5.273438-5.41406 14.76562-5.41406 5.871094 0 10.37109 2.49609 4.5 2.4961 6.925781 7.17188 2.460938 4.64062 2.460938 10.86328zm-25.80469 0q0 5.13281 1.371094 7.83984 1.371094 2.67188 4.605469 2.67188 3.199218 0 4.5-2.67188 1.335937-2.70703 1.335937-7.83984 0-5.09766-1.335937-7.69922-1.335938-2.60156-4.570313-2.60156-3.164062 0-4.535156 2.60156-1.371094 2.56641-1.371094 7.69922z" style="font-feature-settings:normal;font-variant-caps:normal;font-variant-ligatures:normal;font-variant-numeric:normal"/>
  <path id="p" d="m122.7539 604.0143q-3.02344 0-5.41407-0.98437-2.39062-1.01953-4.74609-3.6211h-0.63281q0.63281 4.1836 0.63281 5.20313v15.99609h-13.74609v-57.1289h11.17968l1.9336 5.0625h0.63281q3.83203-5.76563 10.58203-5.76563 6.60938 0 10.37109 5.48438 3.76172 5.48437 3.76172 15.04687 0 9.63281-3.9375 15.1875-3.90234 5.51953-10.61718 5.51953zm-4.60547-30.44531q-3.02344 0-4.25391 2.17969-1.19531 2.14453-1.30078 6.39843v1.08985q0 5.13281 1.37109 7.41797 1.3711 2.28515 4.32422 2.28515 2.63672 0 3.83203-2.25 1.19532-2.28515 1.19532-7.52343 0-5.13282-1.19532-7.34766-1.19531-2.25-3.97265-2.25z" style="font-feature-settings:normal;font-variant-caps:normal;font-variant-ligatures:normal;font-variant-numeric:normal"/>
  <path id="e1" d="m164.3438 604.0143q-9.94922 0-15.46875-5.27344-5.48438-5.30859-5.48438-15.08203 0-10.08984 5.09766-15.46875 5.09766-5.41406 14.55469-5.41406 9 0 13.88672 4.71094 4.92187 4.67578 4.92187 13.5v6.11719h-24.57422q0.14063 3.33984 2.42578 5.23828 2.32032 1.89843 6.29297 1.89843 3.6211 0 6.64453-0.66796 3.0586-0.70313 6.60938-2.35547v9.8789q-3.23438 1.65235-6.67969 2.28516t-8.22656 0.63281zm-0.80859-31.88672q-2.42579 0-4.07813 1.54688-1.61719 1.51172-1.89844 4.78125h11.8125q-0.0703-2.88281-1.65234-4.60547-1.54688-1.72266-4.18359-1.72266z" style="font-feature-settings:normal;font-variant-caps:normal;font-variant-ligatures:normal;font-variant-numeric:normal"/>
  <path id="n1" d="m214.8281 603.3112v-21.72657q0-3.97265-1.16015-5.97656-1.125-2.03906-3.65625-2.03906-3.48047 0-5.02735 2.77734-1.54687 2.77735-1.54687 9.52735v17.4375h-13.74609v-39.83203h10.37109l1.72266 4.92187h0.80859q1.75781-2.8125 4.85156-4.21875 3.12891-1.40625 7.17188-1.40625 6.60937 0 10.26562 3.83203 3.69141 3.83203 3.69141 10.79297v25.91016z" style="font-feature-settings:normal;font-variant-caps:normal;font-variant-ligatures:normal;font-variant-numeric:normal"/>
  <path id="s" d="m283.9102 592.2369q0 5.69531-4.14844 8.7539-4.14844 3.02344-11.88281 3.02344-7.76954 0-12.48047-2.35547v-7.13672q6.85547 3.16407 12.76172 3.16407 7.6289 0 7.6289-4.60547 0-1.47656-0.84375-2.46094-0.84375-0.98437-2.77734-2.03906-1.9336-1.05469-5.37891-2.39063-6.71484-2.60156-9.10547-5.20312-2.35547-2.60156-2.35547-6.75 0-4.99219 4.00782-7.73438 4.04297-2.77734 10.96875-2.77734 6.85547 0 12.97265 2.77734l-2.67187 6.22266q-6.29297-2.60156-10.58203-2.60156-6.53907 0-6.53907 3.72656 0 1.82812 1.6875 3.09375 1.72266 1.26562 7.45313 3.48047 4.81641 1.86328 6.99609 3.41015 2.17969 1.54688 3.23438 3.58594 1.05469 2.00391 1.05469 4.81641z" style="font-feature-settings:normal;font-variant-caps:normal;font-variant-ligatures:normal;font-variant-numeric:normal"/>
  <path id="o2" d="m327.293 583.7994q0 9.52734-4.88672 14.87109t-13.60547 5.34375q-5.44922 0-9.63281-2.46094-4.1836-2.46093-6.4336-7.0664t-2.25-10.6875q0-9.45703 4.85157-14.76563 4.85156-5.30859 13.67578-5.30859 8.4375 0 13.35937 5.44922 4.92188 5.41406 4.92188 14.625zm-28.30078 0q0 13.46484 9.94922 13.46484 9.84375 0 9.84375-13.46484 0-13.32422-9.91407-13.32422-5.20312 0-7.55859 3.44531-2.32031 3.44531-2.32031 9.87891z" style="font-feature-settings:normal;font-variant-caps:normal;font-variant-ligatures:normal;font-variant-numeric:normal"/>
  <path id="u" d="m364.2422 603.3112-1.16016-5.09766h-0.42187q-1.72266 2.70703-4.92188 4.25391-3.16406 1.54687-7.24219 1.54687-7.0664 0-10.54687-3.51562-3.48047-3.51563-3.48047-10.65235v-25.41797h8.33203v23.97657q0 4.46484 1.82813 6.71484 1.82812 2.21484 5.73046 2.21484 5.20313 0 7.62891-3.09375 2.46094-3.1289 2.46094-10.4414v-19.3711h8.29687v38.88282z" style="font-feature-settings:normal;font-variant-caps:normal;font-variant-ligatures:normal;font-variant-numeric:normal"/>
  <path id="r" d="m402.2461 563.7252q2.4961 0 4.11328 0.35156l-0.80859 7.69922q-1.75781-0.42187-3.65625-0.42187-4.95703 0-8.05078 3.23437-3.05859 3.23438-3.05859 8.40234v20.32032h-8.26172v-38.88282h6.46875l1.08984 6.85547h0.42188q1.93359-3.48047 5.02734-5.51953 3.12891-2.03906 6.71484-2.03906z" style="font-feature-settings:normal;font-variant-caps:normal;font-variant-ligatures:normal;font-variant-numeric:normal"/>
  <path id="c" d="m429.2812 604.0143q-8.82422 0-13.42969-5.13281-4.57031-5.16797-4.57031-14.80078 0-9.8086 4.78125-15.08203 4.81641-5.27344 13.88672-5.27344 6.15234 0 11.07422 2.28516l-2.4961 6.64453q-5.23828-2.03907-8.64843-2.03907-10.08985 0-10.08985 13.39454 0 6.53906 2.4961 9.84375 2.53125 3.26953 7.38281 3.26953 5.51953 0 10.4414-2.74219v7.20703q-2.21484 1.30078-4.74609 1.86328-2.49609 0.5625-6.08203 0.5625z" style="font-feature-settings:normal;font-variant-caps:normal;font-variant-ligatures:normal;font-variant-numeric:normal"/>
  <path id="e2" d="m466.3008 604.0143q-9.07031 0-14.20312-5.27344-5.09766-5.30859-5.09766-14.58984 0-9.52734 4.74609-14.97656 4.7461-5.44922 13.04297-5.44922 7.69922 0 12.16406 4.67578 4.46485 4.67578 4.46485 12.86719v4.46484h-25.91016q0.17578 5.66016 3.0586 8.71875 2.88281 3.02344 8.12109 3.02344 3.44531 0 6.39844-0.63281 2.98828-0.66797 6.39843-2.17969v6.71484q-3.02343 1.44141-6.11718 2.03907-3.09375 0.59765-7.06641 0.59765zm-1.51172-34.03125q-3.9375 0-6.32812 2.4961-2.35547 2.49609-2.8125 7.27734h17.64843q-0.0703-4.81641-2.32031-7.27734-2.25-2.4961-6.1875-2.4961z" style="font-feature-settings:normal;font-variant-caps:normal;font-variant-ligatures:normal;font-variant-numeric:normal"/>
  <path id="i1" d="m128.5195 675.51h-8.26172v-38.88281h8.26172zm-8.7539-49.18359q0-2.21485 1.19531-3.41016 1.23047-1.19531 3.48047-1.19531 2.17968 0 3.375 1.19531 1.23046 1.19531 1.23046 3.41016 0 2.10937-1.23046 3.33984-1.19532 1.19531-3.375 1.19531-2.25 0-3.48047-1.19531-1.19531-1.23047-1.19531-3.33984z" style="font-feature-settings:normal;font-variant-caps:normal;font-variant-ligatures:normal;font-variant-numeric:normal;stroke-width:.75px"/>
  <path id="n2" d="m174.5742 675.51h-8.29688v-23.90625q0-4.5-1.82812-6.71484-1.79297-2.21485-5.73047-2.21485-5.23828 0-7.66406 3.09375t-2.42578 10.3711v19.37109h-8.26172v-38.88281h6.46875l1.16015 5.09765h0.42188q1.75781-2.77734 4.99219-4.28906 3.23437-1.51172 7.17187-1.51172 13.99219 0 13.99219 14.23828z" style="font-feature-settings:normal;font-variant-caps:normal;font-variant-ligatures:normal;font-variant-numeric:normal;stroke-width:.75px"/>
  <path id="i2" d="m194.332 675.51h-8.26172v-38.88281h8.26172zm-8.75391-49.18359q0-2.21485 1.19532-3.41016 1.23047-1.19531 3.48047-1.19531 2.17968 0 3.375 1.19531 1.23046 1.19531 1.23046 3.41016 0 2.10937-1.23046 3.33984-1.19532 1.19531-3.375 1.19531-2.25 0-3.48047-1.19531-1.19532-1.23047-1.19532-3.33984z" style="font-feature-settings:normal;font-variant-caps:normal;font-variant-ligatures:normal;font-variant-numeric:normal;stroke-width:.75px"/>
  <path id="t1" d="m220.6641 669.5334q3.02344 0 6.04688-0.94922v6.22265q-1.3711 0.59766-3.55078 0.98438-2.14454 0.42187-4.46485 0.42187-11.74219 0-11.74219-12.375v-20.95312h-5.30859v-3.65625l5.69531-3.02344 2.8125-8.22656h5.09766v8.64844h11.07422v6.25781h-11.07422v20.8125q0 2.98828 1.47656 4.42969 1.51172 1.40625 3.9375 1.40625z" style="font-feature-settings:normal;font-variant-caps:normal;font-variant-ligatures:normal;font-variant-numeric:normal;stroke-width:.75px"/>
  <path id="i3" d="m242.707 675.51h-8.26172v-38.88281h8.26172zm-8.75391-49.18359q0-2.21485 1.19532-3.41016 1.23047-1.19531 3.48047-1.19531 2.17968 0 3.375 1.19531 1.23046 1.19531 1.23046 3.41016 0 2.10937-1.23046 3.33984-1.19532 1.19531-3.375 1.19531-2.25 0-3.48047-1.19531-1.19532-1.23047-1.19532-3.33984z" style="font-feature-settings:normal;font-variant-caps:normal;font-variant-ligatures:normal;font-variant-numeric:normal;stroke-width:.75px"/>
  <path id="a" d="m278.8828 675.51-1.65234-5.41406h-0.28125q-2.8125 3.55078-5.66016 4.85156-2.84765 1.26562-7.3125 1.26562-5.73047 0-8.96484-3.09375-3.19922-3.09375-3.19922-8.7539 0-6.01172 4.46484-9.07031 4.46485-3.0586 13.60547-3.33985l6.71485-0.21094v-2.07421q0-3.72657-1.75782-5.55469-1.72265-1.86328-5.3789-1.86328-2.98828 0-5.73047 0.8789-2.74219 0.87891-5.27344 2.07422l-2.67187-5.90625q3.16406-1.65234 6.92578-2.49609 3.76172-0.87891 7.10156-0.87891 7.41797 0 11.17969 3.23438 3.79687 3.23437 3.79687 10.16015v26.19141zm-12.30469-5.625q4.5 0 7.20704-2.49609 2.74218-2.53125 2.74218-7.06641v-3.375l-4.99218 0.21094q-5.83594 0.21093-8.50782 1.96875-2.63672 1.72265-2.63672 5.30859 0 2.60156 1.54688 4.04297 1.54687 1.40625 4.64062 1.40625z" style="font-feature-settings:normal;font-variant-caps:normal;font-variant-ligatures:normal;font-variant-numeric:normal;stroke-width:.75px"/>
  <path id="t2" d="m310.8047 669.5334q3.02343 0 6.04687-0.94922v6.22265q-1.37109 0.59766-3.55078 0.98438-2.14453 0.42187-4.46484 0.42187-11.74219 0-11.74219-12.375v-20.95312h-5.30859v-3.65625l5.69531-3.02344 2.8125-8.22656h5.09765v8.64844h11.07422v6.25781h-11.07422v20.8125q0 2.98828 1.47657 4.42969 1.51172 1.40625 3.9375 1.40625z" style="font-feature-settings:normal;font-variant-caps:normal;font-variant-ligatures:normal;font-variant-numeric:normal;stroke-width:.75px"/>
  <path id="i4" d="m332.8477 675.51h-8.26172v-38.88281h8.26172zm-8.75391-49.18359q0-2.21485 1.19531-3.41016 1.23047-1.19531 3.48047-1.19531 2.17969 0 3.375 1.19531 1.23047 1.19531 1.23047 3.41016 0 2.10937-1.23047 3.33984-1.19531 1.19531-3.375 1.19531-2.25 0-3.48047-1.19531-1.19531-1.23047-1.19531-3.33984z" style="font-feature-settings:normal;font-variant-caps:normal;font-variant-ligatures:normal;font-variant-numeric:normal;stroke-width:.75px"/>
  <path id="v" d="m353.5547 675.51-14.76563-38.88281h8.71875l7.91016 22.60547q2.03906 5.69531 2.46094 9.21093h0.28125q0.3164-2.53125 2.46093-9.21093l7.91016-22.60547h8.78906l-14.83594 38.88281z" style="font-feature-settings:normal;font-variant-caps:normal;font-variant-ligatures:normal;font-variant-numeric:normal;stroke-width:.75px"/>
  <path id="e3" d="m400.207 676.2131q-9.07031 0-14.20312-5.27343-5.09766-5.3086-5.09766-14.58985 0-9.52734 4.74609-14.97656 4.7461-5.44922 13.04297-5.44922 7.69922 0 12.16406 4.67578 4.46485 4.67578 4.46485 12.86719v4.46484h-25.91016q0.17578 5.66016 3.0586 8.71875 2.88281 3.02344 8.12109 3.02344 3.44531 0 6.39844-0.63281 2.98828-0.66797 6.39843-2.17969v6.71485q-3.02343 1.4414-6.11718 2.03906-3.09375 0.59765-7.06641 0.59765zm-1.51172-34.03125q-3.9375 0-6.32812 2.4961-2.35547 2.49609-2.8125 7.27734h17.64843q-0.0703-4.8164-2.32031-7.27734-2.25-2.4961-6.1875-2.4961z" style="font-feature-settings:normal;font-variant-caps:normal;font-variant-ligatures:normal;font-variant-numeric:normal;stroke-width:.75px"/>
  <path id="registered_tm" d="m431.7151 631.1344h1.75306q1.29857 0 2.07771-0.62727 0.79537-0.64258 0.79537-1.62174 0-1.14745-0.69798-1.63703-0.69798-0.50488-2.20756-0.50488h-1.7206zm7.04472-2.31021q0 1.22395-0.69798 2.17252-0.68174 0.93326-1.93162 1.39224l3.86324 6.04325h-2.72699l-3.36004-5.41597h-2.19133v5.41597h-2.40235v-13.63174h4.23657q2.69453 0 3.9444 0.99446 1.2661 0.99446 1.2661 3.02927zm-17.15731 2.78449q0-3.05987 1.62321-5.73727 1.6232-2.67739 4.46382-4.22262 2.84061-1.54524 6.1195-1.54524 3.24641 0 6.08703 1.52994 2.84061 1.52994 4.48005 4.20733 1.63945 2.67739 1.63945 5.76786 0 3.01398-1.57452 5.66077-1.57451 2.64679-4.41512 4.23793-2.84062 1.59113-6.21689 1.59113-3.36005 0-6.20066-1.57583-2.84062-1.59114-4.43136-4.23793-1.57451-2.64679-1.57451-5.67607zm1.70437 0q0 2.64679 1.41219 4.957 1.41219 2.2949 3.847 3.62595 2.45105 1.31575 5.24297 1.31575 2.82438 0 5.24296-1.33105t3.83077-3.59535q1.42843-2.27961 1.42843-4.9723 0-2.66209-1.4122-4.9417-1.41219-2.2796-3.83077-3.61065-2.40235-1.34635-5.25919-1.34635-2.82439 0-5.24297 1.33105t-3.847 3.61066q-1.41219 2.2643-1.41219 4.95699z" style="fill:#000000;font-feature-settings:normal;font-variant-caps:normal;font-variant-ligatures:normal;font-variant-numeric:normal"/>
 </g>
</svg>