<svg height="64" viewBox="0 0 128 128" width="64" xmlns="http://www.w3.org/2000/svg" xmlns:xlink="http://www.w3.org/1999/xlink"><linearGradient id="a" gradientUnits="userSpaceOnUse" x1="0" x2="128" y1="128" y2="0"><stop offset="0" stop-color="#333"/><stop offset="1" stop-color="#5d5d5d"/></linearGradient><path d="m12.046872 15.203125c-2.6064865 0-4.6874995 2.081017-4.6874995 4.6875v56.84375c0 2.606477 2.081013 4.71875 4.6874995 4.71875h30.15625v-4.71875h-29.96875v-46.3125h65.125001v12.59375h4.90625v-23.125c0-2.606483-2.112271-4.6875-4.71875-4.6875zm38.40625 31.375c-2.606487 0-4.6875 2.081017-4.6875 4.6875v56.812505c0 2.60647 2.081013 4.71875 4.6875 4.71875h65.500008c2.60648 0 4.6875-2.11228 4.6875-4.71875v-56.812505c0-2.606483-2.08102-4.6875-4.6875-4.6875zm.1875 15.1875h65.125008v46.312505h-65.125008z" fill="url(#a)"/></svg>